<?xml version="1.0" standalone="no"?>
<!DOCTYPE svg PUBLIC "-//W3C//DTD SVG 20010904//EN"
 "http://www.w3.org/TR/2001/REC-SVG-20010904/DTD/svg10.dtd">
<svg version="1.0" xmlns="http://www.w3.org/2000/svg"
 width="315.000000pt" height="315.000000pt" viewBox="0 0 315.000000 315.000000"
 preserveAspectRatio="xMidYMid meet">
<metadata>
Created by potrace 1.11, written by Peter Selinger 2001-2013
</metadata>
<g transform="translate(0.000000,315.000000) scale(0.100000,-0.100000)"
fill="#000000" stroke="none">
<path d="M2524 3140 c-62 -9 -74 -15 -74 -39 0 -23 60 -115 157 -244 83 -109
126 -187 143 -257 6 -25 15 -130 20 -235 17 -323 48 -484 141 -743 60 -165 71
-222 45 -222 -8 0 -42 13 -77 30 -104 48 -181 64 -274 55 -153 -15 -150 -15
-148 25 1 19 5 59 9 88 l7 52 -33 0 c-39 0 -76 -24 -157 -104 -35 -33 -63 -54
-63 -46 0 28 29 138 65 250 20 61 35 125 33 143 -3 28 -7 32 -46 40 -47 9 -89
46 -186 161 -75 88 -149 115 -222 80 -60 -28 -80 -97 -50 -169 8 -19 44 -62
80 -97 36 -34 66 -69 66 -78 0 -48 -135 -170 -187 -170 -40 0 -136 56 -260
149 -133 101 -214 172 -435 381 -84 80 -205 190 -268 246 -157 138 -223 204
-308 306 -81 98 -204 213 -317 298 -87 65 -115 78 -115 51 0 -46 147 -218 333
-390 170 -158 862 -827 940 -910 37 -40 93 -106 124 -148 67 -91 118 -143 174
-179 32 -20 39 -28 28 -35 -36 -22 -134 3 -208 54 -61 42 -208 92 -331 112
-121 21 -176 15 -356 -34 -128 -36 -267 -61 -335 -61 -27 0 -49 -4 -49 -8 0
-5 22 -19 50 -31 61 -28 83 -57 104 -140 20 -80 63 -170 115 -243 61 -84 98
-99 279 -109 138 -7 200 -18 230 -42 35 -27 -6 -52 -105 -64 -30 -3 -65 -15
-78 -25 -23 -18 -25 -27 -25 -97 0 -95 30 -221 67 -276 14 -22 48 -60 75 -86
40 -38 48 -51 48 -81 0 -73 -77 -125 -227 -154 -41 -8 -100 -14 -131 -14 -94
0 -656 -89 -757 -119 -18 -6 585 -10 1543 -10 l1572 -1 0 1575 0 1575 -287 -1
c-159 -1 -311 -5 -339 -9z m183 -2326 c111 -58 210 -121 217 -139 10 -26 -222
-213 -361 -291 -173 -97 -442 -144 -964 -170 -172 -9 -180 -6 -141 43 37 47
49 85 61 191 17 157 59 182 346 201 159 11 204 23 185 46 -7 8 -22 15 -34 15
-24 0 -66 26 -66 41 0 20 62 31 227 39 194 10 273 22 335 50 65 29 97 25 195
-26z"/>
</g>
</svg>
