<svg xmlns="http://www.w3.org/2000/svg" viewBox="0, 0, 453.889, 575.265"><path d="M352.189 7.823c-.008 4.314 10.126 25.181 23.388 46.054 20.282 32.389 23.39 44.616 24.076 101.417.722 35.23 7.677 85.57 16.236 112.187 17.888 60.424 17.89 58.986-5.552 44.567-12.503-7.211-26.578-10.111-39.88-7.258-18.78 4.282-20.344 3.561-15.621-13.687 6.295-22.277-5.435-23.735-22.681-2.195l-13.325 16.514 3.947-21.563c2.368-12.218 7.092-30.185 10.24-41.683 3.152-13.655 2.38-19.408-5.442-19.422-6.258-.01-16.408-10.812-22.644-23.764-7.798-14.393-17.17-23.037-27.338-23.054-21.12-.036-25.085 31.592-5.561 50.319 13.275 12.964 13.27 15.84 3.077 30.202-6.273 9.336-15.672 16.51-20.365 16.502-10.951-.019-55.465-42.514-87.467-82.831-12.489-15.839-35.909-43.199-52.304-61.202-17.178-18.003-35.911-41.761-42.149-53.275-12.478-22.31-57.764-70.558-62.463-66.971-4.701 4.306 15.583 35.975 43.686 69.096 14.833 17.28 34.349 40.32 42.934 51.839 9.367 11.519 36.688 44.638 60.886 74.158 24.982 28.801 49.173 62.634 54.63 73.428 5.456 11.513 15.603 24.471 21.852 29.515 10.155 7.926 10.154 8.645-.798 9.345-7.04-.012-17.2-5.062-22.666-10.823-5.466-5.761-22.66-14.418-38.297-18.758-23.455-6.511-34.407-5.811-58.671 3.495-16.438 6.442-37.566 11.439-46.953 11.423-14.863.694-14.864 1.413-2.36 7.905 7.034 3.607 13.273 14.402 13.259 23.03.767 8.629 6.993 27.333 14.01 41.005 11.695 22.308 17.166 25.193 43.761 25.239 33.635.057 48.471 15.181 18.74 19.444-16.43 2.129-18 5.002-15.707 36.641 2.309 22.292 8.536 40.277 17.908 48.921 24.991 23.049-.082 48.171-47.798 48.808-18.774.687-104.843 15.64-108.759 18.509-1.568 2.154 99.335 3.764 224.488 3.976l228.405.389.489-287.589.489-287.589-50.843-.086c-32.853-.056-50.849 2.789-50.857 7.822zm46.21 424.992c13.283 8.651 23.435 18.014 23.431 20.89-.007 3.595-14.895 19.387-32.914 35.893-35.255 32.294-54.82 38.013-139.312 45.777-41.463 3.525-49.284 2.793-40.668-4.383 4.702-5.024 9.42-19.396 9.441-31.618.054-31.635 9.455-40.247 45.439-41.623 17.992-.689 32.859-3.539 32.864-6.415.005-2.876-3.119-5.758-7.813-5.765-3.911-.007-7.816-3.609-7.81-7.204.008-4.313 14.875-7.164 33.648-7.132 17.991.031 38.334-3.53 44.598-7.114 14.878-9.321 12.531-9.325 39.096 8.694z" fill="#aa8238"/></svg>