<?xml version="1.0" standalone="no"?>
<!DOCTYPE svg PUBLIC "-//W3C//DTD SVG 20010904//EN"
 "http://www.w3.org/TR/2001/REC-SVG-20010904/DTD/svg10.dtd">
<svg version="1.0" xmlns="http://www.w3.org/2000/svg"
 width="2397.000000pt" height="2397.000000pt" viewBox="0 0 2397.000000 2397.000000"
 preserveAspectRatio="xMidYMid meet">
<metadata>
Created by potrace 1.11, written by Peter Selinger 2001-2013
</metadata>
<g transform="translate(0.000000,2397.000000) scale(0.100000,-0.100000)"
fill="#000000" stroke="none">
<path d="M18728 23965 c-2 -1 -84 -6 -183 -10 -99 -3 -196 -8 -215 -10 -19 -1
-82 -6 -140 -9 -58 -4 -118 -9 -135 -11 -16 -3 -57 -7 -90 -10 -57 -5 -285
-38 -350 -50 -250 -48 -415 -131 -420 -212 -7 -115 223 -635 497 -1123 17 -30
45 -80 61 -110 17 -30 73 -127 125 -215 52 -88 102 -173 112 -190 9 -16 80
-132 157 -256 323 -519 459 -766 617 -1119 34 -77 109 -282 145 -400 37 -119
103 -390 117 -474 3 -21 8 -48 10 -60 2 -11 11 -64 18 -116 27 -181 35 -251
61 -525 11 -122 20 -276 30 -500 11 -273 15 -393 20 -650 7 -393 15 -710 20
-790 2 -38 7 -126 11 -195 10 -197 21 -359 29 -447 6 -64 12 -134 20 -228 3
-38 8 -88 10 -110 2 -22 7 -67 10 -100 3 -33 8 -80 11 -105 3 -25 7 -64 9 -87
2 -23 6 -61 9 -85 3 -24 8 -70 11 -103 3 -33 8 -71 10 -85 2 -14 11 -81 20
-150 22 -181 23 -188 35 -270 6 -41 13 -93 15 -115 3 -22 7 -51 10 -65 2 -14
7 -45 10 -70 6 -46 32 -211 41 -265 5 -28 7 -43 18 -113 4 -23 18 -103 30
-167 2 -11 7 -40 11 -65 4 -25 9 -54 11 -65 2 -11 9 -47 15 -80 6 -33 20 -105
31 -160 11 -55 22 -113 25 -130 3 -16 14 -70 25 -120 10 -49 21 -101 24 -115
3 -14 9 -41 14 -60 5 -19 11 -46 14 -60 2 -14 14 -63 26 -110 12 -47 23 -92
25 -100 9 -48 57 -220 101 -365 228 -758 468 -1597 499 -1745 2 -8 9 -37 15
-65 6 -27 14 -61 16 -75 2 -14 9 -47 15 -75 6 -27 13 -99 15 -160 5 -150 -13
-185 -96 -190 -64 -5 -204 62 -459 218 -95 59 -176 107 -179 107 -3 0 -13 6
-21 14 -16 14 -197 107 -286 147 -168 74 -437 154 -590 174 -27 4 -52 8 -55
10 -14 8 -220 19 -333 18 -155 -2 -267 -15 -452 -55 -356 -75 -504 -93 -581
-68 -85 27 -121 97 -111 218 7 86 24 169 92 434 30 118 57 246 61 284 31 288
-26 431 -176 442 -207 15 -540 -256 -920 -748 -34 -43 -64 -81 -85 -104 -6 -6
-73 -90 -150 -186 -158 -197 -169 -211 -207 -254 l-27 -31 9 34 c5 19 12 53
15 75 3 23 12 73 20 111 8 39 24 124 36 190 11 66 23 127 24 136 2 9 6 32 9
50 3 19 8 45 10 59 3 14 10 54 16 90 7 36 14 74 16 85 14 71 44 223 48 240 77
349 204 867 297 1210 22 83 42 157 44 165 2 8 19 76 39 150 70 265 100 539 72
647 -35 134 -105 188 -255 199 -97 7 -159 27 -243 78 -237 145 -505 472 -702
856 -169 328 -385 615 -591 786 -271 224 -559 287 -849 185 -51 -18 -167 -88
-211 -128 -30 -27 -107 -122 -136 -168 -51 -79 -109 -245 -124 -353 -3 -20 -8
-48 -11 -61 -3 -13 -5 -80 -5 -150 0 -115 3 -159 15 -216 2 -11 7 -40 11 -65
21 -141 111 -378 195 -516 22 -36 40 -68 40 -71 0 -6 108 -151 144 -192 17
-20 97 -103 177 -186 81 -82 164 -170 185 -195 22 -25 42 -47 45 -50 4 -3 27
-37 52 -76 70 -108 90 -165 90 -259 1 -136 -43 -237 -218 -500 -243 -364 -451
-579 -706 -729 -207 -123 -314 -103 -649 120 -209 139 -590 448 -830 674 -9 8
-72 67 -141 130 -135 124 -713 700 -874 870 -133 140 -309 330 -335 361 -12
13 -36 40 -54 59 -27 29 -195 217 -335 376 -20 22 -54 62 -76 89 -22 26 -45
53 -52 60 -6 6 -35 41 -64 76 -29 35 -56 66 -59 69 -15 13 -339 410 -528 649
-15 18 -43 52 -62 76 -19 23 -47 57 -62 76 -30 38 -40 50 -191 233 -60 72
-125 151 -145 176 -21 25 -53 63 -72 85 -20 22 -69 80 -110 130 -80 96 -245
290 -291 341 -15 18 -59 69 -99 115 -39 46 -81 95 -93 109 -13 14 -50 57 -82
95 -33 39 -62 72 -65 75 -3 3 -50 57 -105 120 -55 63 -102 117 -105 120 -3 3
-54 61 -115 130 -60 69 -126 143 -146 165 -20 22 -101 112 -180 200 -79 88
-150 167 -159 175 -40 39 -308 334 -405 445 -33 38 -78 90 -101 115 -142 159
-506 606 -691 850 -240 317 -380 523 -528 775 -81 139 -178 291 -263 410 -57
79 -146 200 -152 205 -3 3 -17 21 -30 40 -13 19 -27 37 -30 40 -3 3 -37 46
-75 95 -145 187 -561 677 -701 825 -24 25 -53 56 -64 70 -139 163 -606 630
-810 810 -46 41 -91 81 -100 89 -38 36 -218 165 -259 186 -26 13 -61 25 -79
28 -27 4 -36 1 -50 -21 -61 -93 49 -381 313 -822 156 -259 515 -778 769 -1110
49 -63 108 -142 133 -175 25 -33 48 -62 52 -65 3 -3 19 -23 36 -45 27 -37 316
-395 340 -421 5 -7 26 -31 45 -55 19 -24 77 -93 129 -153 51 -61 112 -133 135
-160 22 -27 57 -67 77 -90 20 -22 144 -167 274 -321 130 -154 256 -302 280
-330 23 -27 60 -70 80 -95 20 -25 54 -65 75 -90 73 -88 362 -436 430 -520 38
-47 102 -125 142 -175 40 -49 89 -110 108 -135 19 -25 37 -47 40 -50 3 -3 41
-52 84 -110 67 -88 138 -177 228 -285 9 -11 72 -88 140 -171 194 -238 207
-254 338 -413 191 -232 442 -537 468 -569 32 -40 56 -69 85 -102 12 -14 34
-41 48 -60 15 -19 35 -44 45 -55 11 -11 46 -54 79 -94 33 -41 97 -120 143
-175 46 -56 88 -108 95 -116 63 -77 537 -654 592 -720 39 -47 120 -146 180
-220 96 -118 210 -255 225 -270 3 -3 28 -32 55 -65 28 -33 52 -62 55 -65 11
-10 382 -459 463 -560 120 -150 297 -374 347 -440 71 -92 90 -116 105 -134 6
-6 72 -94 148 -196 76 -102 144 -192 151 -200 6 -9 77 -105 156 -215 79 -110
155 -216 169 -235 14 -19 35 -48 47 -65 11 -16 36 -52 55 -80 70 -99 277 -412
331 -500 75 -121 91 -149 166 -295 36 -69 76 -142 89 -162 12 -21 23 -40 23
-43 0 -2 32 -55 71 -117 240 -382 504 -696 757 -898 255 -206 299 -266 223
-304 -49 -25 -160 -40 -301 -40 -178 -2 -337 44 -559 159 -165 86 -266 163
-475 361 -6 5 -42 33 -81 61 -212 152 -574 338 -935 478 -52 20 -104 40 -115
45 -178 73 -734 223 -945 254 -19 3 -46 8 -60 10 -134 24 -272 35 -440 35
-197 1 -282 -8 -535 -55 -81 -14 -422 -109 -475 -131 -8 -3 -17 -7 -20 -8 -22
-5 -120 -41 -325 -117 -225 -84 -532 -191 -600 -208 -16 -4 -84 -24 -150 -43
-66 -20 -185 -52 -265 -72 -80 -19 -161 -40 -180 -45 -41 -11 -277 -60 -318
-65 -15 -3 -36 -6 -47 -8 -11 -3 -45 -8 -75 -12 -30 -4 -64 -9 -75 -11 -37 -8
-109 -14 -215 -19 -384 -19 -480 -31 -521 -64 -21 -17 -21 -19 -7 -40 28 -40
134 -106 338 -212 218 -113 397 -327 510 -613 44 -112 64 -206 75 -347 9 -115
21 -183 65 -359 62 -247 196 -646 290 -867 6 -13 14 -33 20 -45 118 -280 254
-555 361 -731 16 -26 29 -51 29 -56 0 -5 4 -11 8 -13 4 -1 20 -25 36 -51 70
-121 238 -321 325 -387 18 -14 38 -30 44 -36 21 -18 130 -79 187 -103 69 -30
126 -48 215 -67 101 -22 129 -27 250 -38 143 -14 183 -16 430 -21 287 -5 497
-13 535 -19 14 -3 54 -7 89 -11 36 -3 67 -7 70 -9 3 -2 31 -7 61 -10 79 -9
101 -14 239 -47 280 -68 493 -177 566 -287 90 -136 -9 -260 -280 -352 -44 -15
-83 -27 -88 -28 -4 0 -40 -7 -80 -16 -75 -16 -161 -31 -237 -41 -99 -14 -118
-17 -205 -37 -162 -37 -282 -112 -340 -213 -92 -158 -110 -438 -70 -1095 8
-133 19 -241 35 -361 7 -46 14 -100 16 -119 2 -19 11 -71 19 -115 8 -44 17
-95 20 -113 34 -202 146 -614 200 -737 7 -16 23 -57 35 -90 28 -72 134 -288
161 -326 10 -15 19 -30 19 -33 0 -6 78 -124 95 -142 6 -7 24 -29 41 -50 18
-22 83 -91 146 -154 180 -182 277 -323 337 -493 17 -48 29 -87 26 -87 -2 0 1
-15 6 -32 17 -58 11 -227 -11 -314 -104 -405 -567 -754 -1243 -934 -65 -17
-125 -33 -135 -35 -249 -49 -313 -60 -492 -81 -113 -13 -267 -23 -435 -29
-172 -6 -351 -19 -415 -30 -14 -2 -54 -7 -90 -10 -36 -3 -76 -8 -90 -10 -14
-2 -43 -7 -65 -9 -22 -3 -60 -8 -85 -11 -43 -5 -95 -12 -150 -20 -14 -2 -63
-9 -110 -15 -124 -16 -149 -20 -210 -30 -30 -5 -72 -12 -92 -15 -21 -3 -55 -8
-75 -11 -21 -3 -54 -7 -73 -10 -19 -2 -74 -11 -122 -20 -48 -8 -106 -17 -130
-20 -24 -3 -83 -12 -133 -20 -49 -8 -102 -17 -117 -20 -57 -9 -88 -14 -298
-49 -118 -20 -228 -38 -245 -41 -80 -13 -511 -89 -675 -119 -102 -19 -198 -37
-215 -39 -16 -3 -41 -8 -55 -11 -14 -2 -36 -6 -50 -9 -14 -2 -117 -22 -230
-45 -113 -22 -216 -42 -230 -45 -14 -2 -55 -11 -93 -20 -37 -9 -80 -18 -97
-21 -55 -10 -285 -64 -340 -81 -30 -9 -59 -18 -65 -19 -99 -28 -47 -45 185
-60 52 -3 124 -8 160 -11 84 -6 315 -15 720 -29 300 -10 853 -23 1265 -30 171
-3 425 -7 565 -10 720 -14 2490 -31 4060 -40 961 -6 5240 -15 8723 -20 l3137
-4 0 247 c1 472 10 5684 15 8392 12 7309 17 10602 18 12860 l2 2465 -1347 1
c-741 1 -1348 1 -1350 -1z m-573 -17431 c71 -22 181 -77 281 -140 47 -30 90
-54 94 -54 5 0 10 -3 12 -7 2 -5 73 -55 158 -112 307 -206 685 -464 690 -471
3 -3 21 -17 40 -30 35 -24 251 -189 260 -200 3 -3 39 -34 80 -70 159 -137 297
-292 323 -362 23 -65 -116 -261 -418 -587 -156 -169 -750 -754 -881 -868 -12
-10 -61 -55 -110 -99 -49 -45 -132 -119 -184 -164 -52 -46 -108 -95 -125 -109
-16 -14 -70 -59 -120 -99 -49 -41 -99 -80 -109 -89 -75 -61 -303 -225 -411
-295 -394 -257 -780 -435 -1253 -578 -145 -44 -520 -141 -596 -154 -16 -3 -54
-10 -85 -17 -30 -6 -64 -12 -75 -14 -12 -1 -55 -9 -96 -18 -41 -9 -91 -18
-110 -21 -19 -3 -46 -8 -60 -11 -68 -12 -210 -36 -245 -41 -22 -2 -69 -9 -105
-15 -36 -6 -76 -12 -90 -14 -29 -3 -128 -16 -150 -20 -37 -7 -99 -15 -142 -20
-26 -3 -62 -7 -80 -10 -49 -7 -265 -34 -323 -40 -27 -2 -70 -7 -95 -10 -25 -3
-65 -8 -90 -10 -25 -3 -65 -8 -90 -10 -25 -3 -67 -8 -95 -10 -27 -3 -66 -7
-85 -9 -19 -3 -64 -8 -100 -11 -124 -11 -165 -16 -200 -20 -19 -3 -64 -7 -100
-10 -36 -3 -81 -8 -100 -10 -19 -2 -69 -7 -110 -11 -41 -3 -86 -7 -100 -9
-101 -10 -164 -16 -225 -20 -38 -3 -91 -8 -116 -11 -26 -3 -75 -7 -110 -9 -35
-2 -89 -6 -119 -9 -58 -6 -179 -15 -269 -21 -30 -2 -88 -6 -130 -9 -85 -6
-243 -16 -365 -22 -117 -5 -473 -4 -526 1 -104 12 -154 27 -182 56 -28 28 -28
29 -13 66 9 21 45 67 82 103 110 108 201 268 278 490 54 156 111 395 130 546
4 27 8 60 11 74 4 27 11 185 19 435 7 213 10 246 41 455 3 19 12 62 21 95 8
33 17 70 19 83 5 24 45 137 65 182 176 392 493 582 1124 676 28 4 55 8 60 9
14 3 197 20 325 29 36 3 126 8 200 11 74 3 162 7 195 10 33 2 101 6 150 10 50
3 110 8 135 11 25 2 65 7 90 10 25 2 63 7 85 9 107 12 150 18 280 41 316 56
465 116 465 188 0 68 -57 144 -139 186 -60 30 -92 38 -176 44 -74 6 -124 22
-179 56 -55 35 -61 41 -99 91 -57 76 -70 170 -29 216 29 34 96 70 186 102 47
17 88 30 91 30 3 0 36 6 73 15 120 27 273 49 427 61 44 4 91 8 105 11 31 4
279 12 610 19 140 3 275 7 300 10 25 2 83 6 130 10 47 3 96 8 110 10 14 2 56
6 93 10 37 3 76 8 85 10 9 1 44 6 77 9 169 19 492 81 640 122 211 59 245 75
465 211 252 156 356 184 505 137z"/>
</g>
</svg>
