<svg xmlns="http://www.w3.org/2000/svg" version="1" viewBox="0 0 971.68109 195.66141"><g fill-rule="evenodd"><path d="M380.724 149.019c-34.999 25.797-85.729 39.561-129.406 39.561-61.243 0-116.377-22.651-158.088-60.325-3.277-2.963-.341-7 3.592-4.693 45.014 26.191 100.673 41.947 158.166 41.947 38.775 0 81.429-8.022 120.65-24.67 5.925-2.517 10.88 3.88 5.086 8.18" fill="#f90"/><path d="M395.275 132.371c-4.457-5.715-29.573-2.7-40.846-1.363-3.434.419-3.959-2.569-.865-4.719 20.003-14.078 52.827-10.015 56.655-5.296 3.828 4.745-.996 37.647-19.794 53.351-2.884 2.412-5.637 1.127-4.352-2.071 4.221-10.539 13.685-34.161 9.202-39.902" fill="#f90"/><path d="M355.215 26.901v-13.685c0-2.071 1.573-3.461 3.461-3.461h61.269c1.966 0 3.539 1.416 3.539 3.461v11.719c-.026 1.966-1.678 4.536-4.614 8.599l-31.749 45.329c11.798-.288 24.251 1.468 34.947 7.498 2.412 1.363 3.067 3.356 3.251 5.322v14.603c0 1.992-2.202 4.326-4.509 3.12-18.85-9.884-43.887-10.959-64.729.105-2.124 1.154-4.352-1.154-4.352-3.146v-13.869c0-2.228.026-6.03 2.255-9.412l36.782-52.748h-32.011c-1.966 0-3.539-1.389-3.539-3.434" fill="#221f1f"/><path d="M131.717 112.289h-18.64c-1.783-.131-3.198-1.468-3.33-3.172v-95.665c0-1.914 1.599-3.434 3.592-3.434h17.382c1.809.079 3.251 1.468 3.382 3.198v12.505h.341c4.536-12.086 13.056-17.723 24.539-17.723 11.666 0 18.955 5.637 24.198 17.723 4.509-12.086 14.76-17.723 25.745-17.723 7.813 0 16.359 3.225 21.576 10.461 5.899 8.049 4.693 19.741 4.693 29.992l-.026 60.377c0 1.914-1.599 3.461-3.592 3.461h-18.614c-1.861-.131-3.356-1.625-3.356-3.461v-50.703c0-4.037.367-14.105-.524-17.932-1.389-6.423-5.558-8.232-10.959-8.232-4.509 0-9.228 3.015-11.142 7.839-1.914 4.824-1.73 12.899-1.73 18.326v50.703c0 1.914-1.599 3.461-3.592 3.461h-18.614c-1.888-.131-3.356-1.625-3.356-3.461l-.026-50.703c0-10.67 1.757-26.374-11.483-26.374-13.397 0-12.872 15.311-12.872 26.374v50.703c0 1.914-1.599 3.461-3.592 3.461" fill="#221f1f"/><path d="M476.232 7.999c27.659 0 42.629 23.752 42.629 53.954 0 29.179-16.543 52.329-42.629 52.329-27.161 0-41.947-23.752-41.947-53.351 0-29.782 14.97-52.932 41.947-52.932m.157 19.532c-13.738 0-14.603 18.719-14.603 30.385 0 11.693-.184 36.651 14.445 36.651 14.445 0 15.127-20.135 15.127-32.404 0-8.075-.341-17.723-2.779-25.378-2.097-6.659-6.266-9.255-12.191-9.255" fill="#221f1f"/><path d="M554.726 112.289h-18.562c-1.861-.131-3.356-1.625-3.356-3.461l-.026-95.691c.157-1.757 1.704-3.12 3.592-3.12h17.277c1.625.079 2.962 1.18 3.33 2.674v14.629h.341c5.217-13.082 12.532-19.322 25.404-19.322 8.363 0 16.517 3.015 21.76 11.273 4.876 7.655 4.876 20.528 4.876 29.782v60.22c-.21 1.678-1.757 3.015-3.592 3.015h-18.693c-1.704-.131-3.12-1.389-3.303-3.015v-51.962c0-10.461 1.206-25.771-11.667-25.771-4.535 0-8.704 3.041-10.775 7.655-2.622 5.846-2.962 11.667-2.962 18.116v51.516c-.026 1.914-1.652 3.461-3.644 3.461" fill="#221f1f"/><path d="M621.028 104.686c0-4.824 4.116-8.704 9.176-8.704 5.06 0 9.176 3.88 9.176 8.704 0 4.798-4.116 8.73-9.176 8.73-5.06 0-9.176-3.933-9.176-8.73" fill="#221f1f"/><path d="M818.519 112.315c-1.94-.079-3.461-1.573-3.461-3.461v-95.665c.105-1.704 1.547-3.041 3.33-3.146h6.843c1.888 0 3.408 1.363 3.565 3.146v13.947c4.876-11.064 13.947-19.715 25.404-19.715h1.3900000000000001c12.165 0 21.052 8.966 24.355 21.996 5.165-12.872 14.865-21.996 27.659-21.996h1.415c9.045 0 17.749 5.82 22.258 14.681 4.352 8.468 4.195 19.741 4.195 29.206l-.026 57.546c.026 1.835-1.468 3.33-3.33 3.461h-8.18c-1.783-.079-3.225-1.337-3.461-2.989v-58.018c0-6.843.341-14.105-2.438-20.344-2.831-6.371-8.258-10.356-14.078-10.644-6.502.315-12.479 5.06-16.359 11.457-5.034 8.258-4.85 15.704-4.85 25.352v52.25c-.236 1.573-1.625 2.805-3.33 2.936h-8.127c-1.94-.079-3.487-1.573-3.487-3.461l-.052-61.374c0-5.637-.341-12.269-2.936-17.329-3.015-5.768-8.416-9.543-14.078-9.831-5.873.341-11.798 4.824-15.311 10.041-4.536 6.659-5.401 14.891-5.401 23.359v55.134c0 1.835-1.494 3.33-3.356 3.461h-8.153" fill="#221f1f"/><path d="M762.363 114.308c-26.453 0-38.303-26.977-38.303-53.954 0-28.367 13.921-52.932 40.557-52.932h1.416c25.902 0 38.801 26.164 38.801 53.142 0 28.576-14.288 53.745-41.082 53.745h-1.3900000000000001m1.94-13.082c8.704-.288 15.573-5.689 19.636-14.681 3.644-8.075 4.352-17.329 4.352-26.191 0-9.648-1.049-19.715-5.584-27.973-4.064-7.21-11.037-11.798-18.43-12.06-8.232.288-15.599 5.873-19.296 14.472-3.33 7.446-4.352 17.329-4.352 25.561 0 9.255 1.206 19.951 5.034 28 3.723 7.629 10.88 12.584 18.64 12.872" fill="#221f1f"/><path d="M679.701 100.806c11.876-.367 18.116-9.884 20.685-22.206.524-1.547 1.704-2.727 3.434-2.727l7.839-.026c1.861.079 3.565 1.494 3.408 3.225-3.618 21-16.281 35.235-34.318 35.235h-1.416c-26.269 0-37.595-26.374-37.595-53.142 0-26.558 11.483-53.745 37.752-53.745h1.416c18.247 0 31.25 14.052 34.082 35.052 0 1.573-1.468 2.936-3.198 3.12l-8.206-.105c-1.73-.236-2.858-1.704-3.12-3.356-1.966-11.719-8.704-21.052-19.925-21.419-17.854.577-22.94 22.546-22.94 39.456 0 16.281 4.247 40.059 22.101 40.636" fill="#221f1f"/><path d="M306.373 66.593c0 7.262.184 13.318-3.487 19.767-2.962 5.243-7.682 8.468-12.899 8.468-7.157 0-11.352-5.453-11.352-13.502 0-15.887 14.236-18.771 27.737-18.771v4.037m18.797 45.434c-1.232 1.101-3.015 1.18-4.404.446-6.187-5.138-7.314-7.524-10.696-12.427-10.225 10.434-17.487 13.554-30.726 13.554-15.704 0-27.895-9.674-27.895-29.048 0-15.127 8.18-25.43 19.872-30.464 10.12-4.457 24.251-5.243 35.052-6.476v-2.412c0-4.431.341-9.674-2.281-13.502-2.255-3.434-6.607-4.85-10.461-4.85-7.105 0-13.423 3.644-14.97 11.195-.315 1.678-1.547 3.33-3.251 3.408l-18.063-1.94c-1.521-.341-3.225-1.573-2.779-3.906 4.142-21.917 23.962-28.524 41.685-28.524 9.071 0 20.921 2.412 28.078 9.281 9.071 8.468 8.206 19.767 8.206 32.063v29.048c0 8.73 3.618 12.558 7.026 17.277 1.18 1.678 1.442 3.697-.079 4.955-3.801 3.172-10.565 9.071-14.288 12.374l-.026-.052" fill="#221f1f"/><path d="M62.006 66.593c0 7.262.183 13.318-3.487 19.767-2.963 5.243-7.655 8.468-12.899 8.468-7.157 0-11.326-5.453-11.326-13.502 0-15.887 14.236-18.771 27.711-18.771v4.037m18.797 45.434c-1.232 1.101-3.015 1.18-4.404.446-6.187-5.138-7.288-7.524-10.696-12.427-10.225 10.434-17.46 13.554-30.726 13.554-15.678 0-27.895-9.674-27.895-29.048 0-15.127 8.206-25.43 19.872-30.464 10.12-4.457 24.251-5.243 35.052-6.476v-2.412c0-4.431.341-9.674-2.255-13.502-2.281-3.434-6.633-4.85-10.461-4.85-7.105 0-13.449 3.644-14.996 11.195-.315 1.678-1.547 3.33-3.225 3.408l-18.09-1.94c-1.521-.341-3.198-1.573-2.779-3.906 4.168-21.917 23.962-28.524 41.685-28.524 9.071 0 20.921 2.412 28.078 9.281 9.071 8.468 8.206 19.767 8.206 32.063v29.048c0 8.73 3.618 12.558 7.026 17.277 1.206 1.678 1.468 3.697-.052 4.955-3.801 3.172-10.565 9.071-14.288 12.374l-.052-.052" fill="#221f1f"/><path d="M954.821 11.066c4.483 0 8.206 3.618 8.206 8.18 0 4.457-3.67 8.206-8.206 8.206-4.509 0-8.18-3.67-8.18-8.206 0-4.614 3.723-8.18 8.18-8.18m.026-1.573c-5.243 0-9.779 4.247-9.779 9.779 0 5.427 4.457 9.753 9.779 9.753 5.348 0 9.753-4.378 9.753-9.753 0-5.532-4.483-9.779-9.753-9.779m-3.67 15.258h2.097v-4.404h1.94c.76 0 .97.315 1.127.944 0 .157.367 2.936.393 3.461h2.333c-.288-.524-.446-2.019-.551-2.91-.21-1.389-.315-2.36-1.809-2.464.76-.262 2.071-.682 2.071-2.7 0-2.884-2.543-2.884-3.854-2.884h-3.749v10.959m2.045-9.202h1.757c.577 0 1.625 0 1.625 1.494 0 .577-.262 1.547-1.678 1.547h-1.704v-3.041" fill="#221f1f"/></g></svg>