<svg xmlns="http://www.w3.org/2000/svg" viewBox="0, 0, 315, 315"><path d="M244.426 4.005c-.006 2.362 7.027 13.788 16.231 25.218 14.076 17.735 16.233 24.43 16.709 55.533.501 19.291 5.328 46.856 11.268 61.431 12.414 33.086 12.416 32.299-3.853 24.403-8.677-3.948-18.445-5.536-27.677-3.974-13.033 2.345-14.119 1.95-10.841-7.496 4.369-12.197-3.772-12.995-15.741-1.201l-9.247 9.043 2.739-11.807c1.643-6.691 4.922-16.529 7.107-22.826 2.187-7.476 1.651-10.626-3.777-10.634-4.343-.005-11.387-5.92-15.715-13.012-5.412-7.882-11.916-12.615-18.973-12.624-14.657-.02-17.409 17.299-3.859 27.553 9.213 7.099 9.209 8.674 2.135 16.538-4.353 5.112-10.876 9.041-14.133 9.036-7.6-.01-38.493-23.279-60.702-45.356-8.668-8.673-24.921-23.655-36.299-33.513-11.922-9.858-24.923-22.867-29.252-29.172-8.66-12.216-40.088-38.635-43.349-36.671-3.263 2.358 10.814 19.699 30.318 37.835 10.294 9.462 23.838 22.078 29.796 28.386 6.501 6.307 25.462 24.442 42.255 40.607 17.338 15.77 34.126 34.296 37.913 40.206 3.787 6.304 10.829 13.401 15.166 16.163 7.047 4.34 7.047 4.733-.554 5.117-4.886-.007-11.937-2.772-15.73-5.927-3.794-3.154-15.726-7.896-26.579-10.271-16.277-3.565-23.878-3.182-40.717 1.914-11.408 3.527-26.071 6.263-32.586 6.254-10.315.381-10.315.774-1.638 4.329 4.882 1.975 9.212 7.886 9.202 12.611.532 4.725 4.853 14.967 9.723 22.453 8.116 12.215 11.913 13.795 30.37 13.82 23.343.031 33.639 8.313 13.006 10.647-11.403 1.166-12.492 2.739-10.901 20.064 1.603 12.206 5.924 22.055 12.428 26.788 17.344 12.621-.056 26.376-33.172 26.725-13.029.377-72.774 10.954-75.491 12.525-1.089 1.179 70.137.111 156.994.227l158 .053v-159.053l.006-156.178-35.285-.048c-22.8-.03-35.289 1.528-35.295 4.284zm32.07 232.714c9.218 4.737 16.264 9.864 16.261 11.439-.005 1.968-10.337 10.615-22.842 19.653-24.467 17.684-38.046 20.815-96.683 25.067-28.776 1.929-34.203 1.53-28.224-2.4 3.263-2.751 6.538-10.62 6.552-17.313.038-17.323 6.562-22.038 31.535-22.792 12.486-.378 22.804-1.937 22.808-3.512.003-1.575-2.165-3.153-5.423-3.157-2.714-.004-5.424-1.976-5.42-3.946.006-2.36 10.323-3.922 23.352-3.904 12.486.016 26.604-1.933 30.951-3.895 10.325-5.104 8.697-5.107 27.133 4.76z" fill="#AA8238"/></svg>