<svg xmlns="http://www.w3.org/2000/svg" viewBox="0 0 303.45377 65.497818"><g style="line-height:0%;-inkscape-font-specification:Cordia New" font-size="72.055" letter-spacing="-2.658" word-spacing="0" font-family="Cordia New" fill="#59461b"><path d="M31.361 50.415c0 4.93-1.325 8.677-3.974 11.239-2.649 2.562-6.432 3.844-11.348 3.844-4.01 0-7.257-.943-9.739-2.828-2.768-2.127-4.2-5.149-4.296-9.064h1.433c.143 3.48 1.431 6.138 3.865 7.975 2.195 1.643 5.083 2.465 8.664 2.465 9.309 0 13.963-4.544 13.963-13.631v-11.385h-.144c-.715 3.191-2.469 5.753-5.262 7.686-2.793 1.933-5.86 2.9-9.201 2.9-4.917 0-8.759-1.812-11.529-5.437-2.529-3.287-3.793-7.493-3.793-12.618 0-5.221 1.313-9.523 3.938-12.905 2.912-3.675 6.874-5.512 11.885-5.512 3.294 0 6.253 1.015 8.879 3.046 2.626 2.031 4.32 4.641 5.084 7.83h.144v-10.006h1.431zm-1.503-18.853c0-4.592-1.17-8.483-3.509-11.673-2.625-3.529-6.134-5.293-10.526-5.293-4.581 0-8.185 1.716-10.812 5.147-2.386 3.094-3.579 7.033-3.579 11.819 0 4.69 1.122 8.533 3.365 11.529 2.53 3.384 6.015 5.076 10.454 5.076 4.535 0 8.163-1.643 10.884-4.93 2.482-3.094 3.723-6.985 3.723-11.675z" style="-inkscape-font-specification:Aliquam Ultra-Light" font-weight="200" letter-spacing="-1.3" word-spacing="-.85" font-family="Aliquam"/><path d="M68.083 32.794c0 5.414-1.408 9.959-4.224 13.633-3.056 4.06-7.185 6.09-12.387 6.09-5.155 0-9.285-2.03-12.387-6.09-2.769-3.675-4.154-8.219-4.154-13.633 0-5.365 1.409-9.909 4.226-13.631 3.103-4.013 7.231-6.019 12.385-6.019 5.155 0 9.261 2.031 12.317 6.092 2.816 3.673 4.224 8.193 4.224 13.558zm-1.433 0c0-4.93-1.264-9.112-3.793-12.545-2.817-3.769-6.589-5.654-11.314-5.654-4.726 0-8.496 1.885-11.312 5.654-2.577 3.384-3.865 7.566-3.865 12.545 0 5.028 1.264 9.233 3.793 12.618 2.817 3.771 6.612 5.656 11.384 5.656 4.774 0 8.545-1.885 11.314-5.656 2.529-3.433 3.793-7.639 3.793-12.618z" style="-inkscape-font-specification:Aliquam Ultra-Light" font-weight="200" letter-spacing="-1.3" word-spacing="-.85" font-family="Aliquam"/><path d="M103.991 32.794c0 5.414-1.408 9.959-4.224 13.633-3.056 4.06-7.185 6.09-12.387 6.09-5.155 0-9.285-2.03-12.387-6.09-2.769-3.675-4.154-8.219-4.154-13.633 0-5.365 1.409-9.909 4.226-13.631 3.103-4.013 7.231-6.019 12.385-6.019 5.155 0 9.261 2.031 12.317 6.092 2.816 3.673 4.224 8.193 4.224 13.558zm-1.433 0c0-4.93-1.264-9.112-3.793-12.545-2.817-3.769-6.589-5.654-11.314-5.654-4.726 0-8.496 1.885-11.312 5.654-2.577 3.384-3.865 7.566-3.865 12.545 0 5.028 1.264 9.233 3.793 12.618 2.817 3.771 6.612 5.656 11.384 5.656 4.774 0 8.545-1.885 11.314-5.656 2.529-3.433 3.793-7.639 3.793-12.618z" style="-inkscape-font-specification:Aliquam Ultra-Light" font-weight="200" letter-spacing="-1.3" word-spacing="-.85" font-family="Aliquam"/><path d="M137.32 51.648h-1.431v-10.513h-.144c-.954 3.431-2.768 6.186-5.441 8.265-2.673 2.079-5.776 3.118-9.309 3.118-5.059 0-9.021-2.054-11.885-6.163-2.53-3.626-3.796-8.122-3.796-13.487 0-5.27 1.288-9.765 3.865-13.487 2.864-4.157 6.802-5.872 11.815-5.872 3.675 0 6.826 1.003 9.452 3.009 2.626 2.006 4.392 4.798 5.298 8.376h.144v-24.893h1.431zm-1.431-18.78c0-5.221-1.17-9.45-3.509-12.688-2.625-3.722-6.42-5.583-11.384-5.583-4.63 0-8.233 1.933-10.812 5.8-2.291 3.384-3.437 7.541-3.437 12.472 0 4.979 1.122 9.136 3.365 12.472 2.578 3.819 6.206 5.729 10.884 5.729s8.401-1.91 11.17-5.729c2.482-3.384 3.723-7.541 3.723-12.472z" style="-inkscape-font-specification:Aliquam Ultra-Light" font-weight="200" letter-spacing="-1.3" word-spacing="-.85" font-family="Aliquam"/><path d="M144.725 51.648v-37.601h4.835v7.562c1.445-2.667 2.323-4.194 3.547-5.044 1.224-.85 2.775-2.16 4.148-2.682 1.802-.685 4.375-1.471 6.468-.396l.086 5.325c-1.538-.921-5.134.187-6.868.97-1.253.566-2.82 1.36-3.694 2.428-1.026 1.254-1.957 1.8-2.424 3.287-.699 2.266-.98 3.775-.98 6.465v19.685z" letter-spacing="-3.06"/><path d="M167.742 30.02h23.742c-.32-3.622-1.228-6.338-2.722-8.15-2.295-2.811-5.272-4.217-8.928-4.217-3.31 0-6.092 1.122-8.348 3.365-2.255 2.244-3.503 5.244-3.743 9.001zm23.049 9.617l5.915-.067c-1.026 3.847-3.219 7.617-5.993 9.741-2.774 2.124-6.316 3.186-10.628 3.186-5.431 0-9.737-1.694-12.918-5.081-3.182-3.387-4.772-8.137-4.772-14.251 0-6.326 1.608-11.235 4.825-14.729 3.216-3.493 7.389-5.24 12.516-5.24 4.965 0 9.02 1.711 12.167 5.134 3.147 3.423 4.72 8.238 4.72 14.445 0 .378-.012.944-.035 1.699h-29.061c.233 4.131 1.583 8.175 3.657 10.37 2.074 2.195 5.837 3.293 8.937 3.293 2.307 0 5.159-1.397 6.79-2.625 1.632-1.227 2.925-3.186 3.881-5.877z" letter-spacing="-3.06"/><path d="M224.165 47.009c-2.331 2.006-4.574 3.423-6.73 4.249-2.156.826-4.469 1.239-6.94 1.239-4.079 0-7.214-1.009-9.405-3.027-2.191-2.018-3.286-4.597-3.286-7.736 0-1.841.414-3.523 1.241-5.045.827-1.522 1.911-2.744 3.251-3.664 1.34-.921 2.849-1.617 4.528-2.089 1.235-.33 3.1-.649 5.594-.956 5.081-.614 8.822-1.345 11.223-2.195.023-.873.035-1.428.035-1.664 0-2.596-.594-5.503-1.783-6.566-1.608-1.44-3.997-2.16-7.167-2.16-2.96 0-5.145.525-6.555 1.576-1.41 1.05-3.139 3.007-3.129 6.654l-5.689-.017c.559-2.667 1.015-5.654 2.297-7.294 1.282-1.64 3.135-2.903 5.559-3.788 2.424-.885 5.233-1.328 8.426-1.328 3.17 0 5.26.378 7.242 1.133 1.981.755 3.299 1.913 4.232 3.058.932 1.145 1.377 2.383 1.75 4.129.21 1.086.315 3.045.315 5.877v8.497c0 5.925-.212 7.732.056 9.302.268 1.57 1.837 2.243 3.877 1.882l.079 4.86s-4.897.293-6.583-.357c-1.375-.53-2.25-2.799-2.436-4.569zm-.524-14.856c-2.284.944-4.948.846-9.586 1.784-2.934.655-4.209.872-5.281 1.344-1.072.472-3.159.706-4.63 2.487-1.183 1.432-1.013 2.888-1.013 4.482 0 1.699 1.397 3.116 2.667 4.249 1.27 1.133 3.753 1.007 6.2 1.007 2.424 0 4.58-.537 6.468-1.611 1.888-1.074 3.275-2.543 4.16-4.408.676-1.44 1.014-3.564 1.014-6.373z" letter-spacing="-3.06"/><path d="M263.736 51.925v-4.744c-2.354 3.729-9.002 5.594-13.57 5.594-2.96 0-5.681-.826-8.164-2.478-2.482-1.652-4.405-3.96-5.769-6.922-1.364-2.962-2.045-6.367-2.045-10.215 0-3.753.618-7.158 1.853-10.214 1.235-3.057 3.088-5.399 5.559-7.028 2.471-1.629 5.233-2.443 8.286-2.443 2.238 0 7.417.478 9.165 1.434 1.748.956 3.17 2.201 4.265 3.735v-18.623h5.427v51.905zm-24.843-18.765c0 4.815 1.002 8.415 3.007 10.799 2.004 2.384 6.526 4.556 9.253 4.556 2.75 0 7.882-2.119 9.805-4.396 1.923-2.278 2.884-5.753 2.884-10.427 0-5.146-.979-8.922-2.937-11.33-1.958-2.408-6.577-4.787-9.444-4.787-2.797 0-7.877 2.332-9.753 4.645-1.876 2.313-2.814 5.96-2.814 10.94z" letter-spacing="-3.06"/><path d="M273.107 39.199l4.705-.061c.35 2.526 1.764 5.245 3.36 6.59 1.597 1.345 4.416 2.214 7.283 2.214 2.89 0 5.426-.498 6.825-1.69 1.398-1.192 3.175-2.101 3.175-4.587 0-1.44-.814-3.259-2.049-4.085-.862-.566-3.595-1.776-7.021-2.65-4.615-1.18-7.422-1.515-9.205-2.377-1.783-.862-3.723-1.858-4.643-3.38-.921-1.522-1.381-3.204-1.381-5.045 0-1.676.379-3.228 1.136-4.656.757-1.428 1.789-2.614 3.094-3.558.979-.732 1.823-1.351 3.513-1.859 1.69-.507 3.502-.761 5.437-.761 2.913 0 5.471.425 7.674 1.275 2.203.85 3.828 2 4.877 3.452s1.82 4.373 2.217 6.804l-4.684-.032c-.28-1.935-2.118-4.818-3.459-5.903-1.34-1.086-4.704-1.433-7.151-1.433-2.89 0-4.267 1.268-5.502 2.235-1.235.968-1.853 2.101-1.853 3.399 0 .826-.038 1.766.475 2.426.513.685 1.709 1.741 2.804 2.189.629.236 2.776 1.073 5.853 1.923 4.452 1.204 7.46 1.503 9.219 2.271 1.76.767 3.141 1.882 4.143 3.346 1.002 1.463 1.503 3.281 1.503 5.452 0 2.124-.612 4.125-1.835 6.001-1.224 1.876-2.989 3.328-5.297 4.355-2.307 1.027-4.918 1.54-7.831 1.54-4.825 0-8.502-1.015-11.03-3.045-2.529-2.03-3.653-6.362-4.352-10.351z" letter-spacing="-3.06"/></g></svg>