<svg xmlns="http://www.w3.org/2000/svg" xmlns:xlink="http://www.w3.org/1999/xlink" viewBox="0 0 602 602"><defs><linearGradient id="c"><stop offset="0" stop-color="#bb5bfd"/><stop offset="1" stop-color="#eb82d6"/></linearGradient><linearGradient id="b"><stop offset="0" stop-color="#2350eb"/><stop offset="1" stop-color="#2fdaf7"/></linearGradient><linearGradient id="a"><stop offset="0" stop-color="#0081f8"/><stop offset="1" stop-color="#01ddff"/></linearGradient><linearGradient><stop offset="0" stop-color="#0081f8"/><stop offset="1" stop-color="#0081f8" stop-opacity="0"/></linearGradient><linearGradient><stop offset="0" stop-color="#3d73c3"/><stop offset=".25" stop-color="#0064f5" stop-opacity=".373"/><stop offset=".5" stop-color="#0064f5" stop-opacity=".247"/><stop offset="1" stop-color="#0064f5" stop-opacity="0"/></linearGradient><linearGradient><stop offset="0" stop-color="#fff"/><stop offset="1" stop-color="#fff" stop-opacity="0"/></linearGradient><linearGradient xlink:href="#a" x1="377.888" y1="512.689" x2="378.472" y2="338.639" gradientUnits="userSpaceOnUse"/><linearGradient xlink:href="#a" gradientUnits="userSpaceOnUse" gradientTransform="translate(0 450.362)" x1="305.201" y1="598.592" x2="305.785" y2="8.244"/><linearGradient xlink:href="#a" gradientUnits="userSpaceOnUse" gradientTransform="matrix(.145 0 0 .145 -176.815 570.366)" x1="305.201" y1="598.592" x2="305.785" y2="8.244"/><linearGradient xlink:href="#b" gradientUnits="userSpaceOnUse" gradientTransform="translate(0 450.362)" x1="305.201" y1="598.592" x2="305.785" y2="8.244"/><linearGradient xlink:href="#c" id="d" gradientUnits="userSpaceOnUse" gradientTransform="translate(0 450.362)" x1="305.201" y1="598.592" x2="305.785" y2="8.244"/></defs><g><path d="M138.684 1h324.632c76.277 0 137.684 61.407 137.684 137.684v324.632c0 76.277-61.407 137.684-137.684 137.684h-324.632c-76.277 0-137.684-61.407-137.684-137.684v-324.632c0-76.277 61.407-137.684 137.684-137.684z" color="#000" fill="url(#d)" overflow="visible" enable-background="accumulate"/><path d="M300.462 37.261c-142.36 0-257.759 115.399-257.759 257.759s115.399 257.759 257.759 257.759 257.759-115.399 257.759-257.759-115.399-257.759-257.759-257.759zm0 28.448c126.629 0 229.31 102.681 229.31 229.31s-102.681 229.31-229.31 229.31-229.095-102.681-229.095-229.31 102.465-229.31 229.095-229.31z" color="#000" fill="#fff" overflow="visible" enable-background="accumulate"/><path d="M407.895 123.41l-178.759 48.336h-.208v72.712h.208v130.006c-7.822-4.704-17.409-7.5-27.71-7.5-26.533 0-47.919 18.425-47.919 41.044 0 22.619 21.386 40.835 47.919 40.835 26.533 0 49.073-18.237 48.127-40.835l-.485-11.599-1.181-157.16 141.257-38.127v143.549c-8.249-5.685-18.777-9.167-30.21-9.167-26.533 0-47.919 18.425-47.919 41.044 0 22.619 21.386 40.835 47.919 40.835 26.533 0 48.836-18.217 48.836-40.835v-.625l.125-179.801v-72.712z" color="#000" overflow="visible" enable-background="accumulate" fill="#fff"/></g></svg>